<svg width="40" height="40" viewBox="0 0 40 40" fill="none" xmlns="http://www.w3.org/2000/svg">
<path d="M33.3828 3.30639C33.1133 3.57592 32.8438 3.84546 32.5742 4.11499C31.8477 4.84155 31.1172 5.57202 30.3906 6.29858C29.3086 7.38061 28.2266 8.46264 27.1445 9.54467C25.832 10.8572 24.5195 12.1697 23.207 13.4822C21.7617 14.9275 20.3164 16.3728 18.8672 17.822C17.418 19.2712 15.9648 20.7244 14.5156 22.1736C13.1562 23.533 11.793 24.8962 10.4336 26.2556C9.28906 27.4001 8.14844 28.5408 7.00391 29.6853C6.17578 30.5134 5.35156 31.3376 4.52344 32.1658C4.13281 32.5564 3.74219 32.9431 3.35547 33.3337C3.33984 33.3494 3.32031 33.3689 3.30469 33.3845C2.87891 33.8103 2.61719 34.4392 2.61719 35.0408C2.61719 35.615 2.87109 36.3025 3.30469 36.697C3.75 37.1072 4.33594 37.4119 4.96094 37.3845C5.58203 37.3572 6.16797 37.1462 6.61719 36.697C6.88672 36.4275 7.15625 36.158 7.42578 35.8884C8.15234 35.1619 8.88281 34.4314 9.60938 33.7048L12.8555 30.4587C14.168 29.1462 15.4805 27.8337 16.793 26.5212C18.2383 25.0759 19.6836 23.6306 21.1328 22.1814C22.582 20.7322 24.0352 19.279 25.4844 17.8298C26.8438 16.4705 28.207 15.1072 29.5664 13.7478C30.7109 12.6033 31.8516 11.4626 32.9961 10.3181C33.8242 9.48999 34.6484 8.66577 35.4766 7.83764C35.8672 7.44702 36.2578 7.0603 36.6445 6.66967L36.6953 6.61889C37.1211 6.19311 37.3828 5.5642 37.3828 4.96264C37.3828 4.38842 37.1289 3.70092 36.6953 3.30639C36.25 2.89624 35.6641 2.59155 35.0391 2.61889C34.418 2.64624 33.832 2.85717 33.3828 3.30639Z" fill="white"/>
<path d="M9.87892 14.7578C9.54689 14.7578 9.21486 14.7578 8.88283 14.7578C8.51174 14.7578 8.13283 14.7773 7.76174 14.7305C7.96877 14.7578 8.1758 14.7852 8.38674 14.8125C8.10549 14.7734 7.83595 14.6992 7.57424 14.5898C7.76174 14.668 7.94924 14.7461 8.13283 14.8242C7.87892 14.7148 7.64064 14.5781 7.42189 14.4102C7.57814 14.5312 7.7383 14.6562 7.89455 14.7773C7.66408 14.5977 7.45705 14.3945 7.28127 14.1641C7.40236 14.3203 7.52736 14.4805 7.64846 14.6367C7.48049 14.4141 7.34377 14.1797 7.23439 13.9258C7.31252 14.1133 7.39064 14.3008 7.46877 14.4844C7.3633 14.2227 7.28908 13.9531 7.24611 13.6719C7.27345 13.8789 7.3008 14.0859 7.32814 14.2969C7.28908 14 7.3008 13.7031 7.3008 13.4062C7.3008 12.9375 7.3008 12.4727 7.3008 12.0039C7.3008 10.9297 7.3008 9.85156 7.3008 8.77734C7.3008 8.4375 7.28517 8.09375 7.32814 7.75781C7.3008 7.96484 7.27345 8.17188 7.24611 8.38281C7.28517 8.10156 7.35939 7.83203 7.46877 7.57031C7.39064 7.75781 7.31252 7.94531 7.23439 8.12891C7.34377 7.875 7.48049 7.63672 7.64846 7.41797C7.52736 7.57422 7.40236 7.73438 7.28127 7.89062C7.46095 7.66016 7.66408 7.45312 7.89455 7.27734C7.7383 7.39844 7.57814 7.52344 7.42189 7.64453C7.64455 7.47656 7.87892 7.33984 8.13283 7.23047C7.94533 7.30859 7.75783 7.38672 7.57424 7.46484C7.83595 7.35938 8.10549 7.28516 8.38674 7.24219C8.1797 7.26953 7.97267 7.29688 7.76174 7.32422C8.18361 7.26953 8.6133 7.29688 9.03517 7.29688C9.45705 7.29688 9.89064 7.27344 10.3086 7.32422C10.1016 7.29688 9.89455 7.26953 9.68361 7.24219C9.96486 7.28125 10.2344 7.35547 10.4961 7.46484C10.3086 7.38672 10.1211 7.30859 9.93752 7.23047C10.1914 7.33984 10.4297 7.47656 10.6485 7.64453C10.4922 7.52344 10.332 7.39844 10.1758 7.27734C10.4063 7.45703 10.6094 7.66016 10.7891 7.89062C10.668 7.73438 10.543 7.57422 10.4219 7.41797C10.5899 7.64062 10.7266 7.875 10.836 8.12891C10.7578 7.94141 10.6797 7.75391 10.6016 7.57031C10.707 7.83203 10.7813 8.10156 10.8242 8.38281C10.7969 8.17578 10.7695 7.96875 10.7422 7.75781C10.7813 8.05469 10.7695 8.35156 10.7695 8.64844V10.0508V13.2773C10.7695 13.6172 10.7852 13.9609 10.7422 14.2969C10.7695 14.0898 10.7969 13.8828 10.8242 13.6719C10.7852 13.9531 10.711 14.2227 10.6016 14.4844C10.6797 14.2969 10.7578 14.1094 10.836 13.9258C10.7266 14.1797 10.5899 14.418 10.4219 14.6367C10.543 14.4805 10.668 14.3203 10.7891 14.1641C10.6094 14.3945 10.4063 14.6016 10.1758 14.7773C10.332 14.6562 10.4922 14.5312 10.6485 14.4102C10.4258 14.5781 10.1914 14.7148 9.93752 14.8242C10.125 14.7461 10.3125 14.668 10.4961 14.5898C10.2344 14.6953 9.96486 14.7695 9.68361 14.8125C9.89064 14.7852 10.0977 14.7578 10.3086 14.7305C10.168 14.7461 10.0235 14.7578 9.87892 14.7578C9.27345 14.7617 8.64845 15.0156 8.22267 15.4453C7.81642 15.8516 7.51174 16.5195 7.53517 17.1016C7.56252 17.707 7.76174 18.3359 8.22267 18.7578C8.6797 19.1758 9.24611 19.4492 9.87892 19.4453C11.3125 19.4336 12.6289 18.8828 13.6875 17.9336C14.1211 17.543 14.5039 17.0469 14.7735 16.5312C14.9453 16.1992 15.0938 15.8477 15.211 15.4922C15.3399 15.0938 15.3867 14.6602 15.4297 14.25C15.461 13.9492 15.4531 13.6445 15.4531 13.3438C15.4531 12.8438 15.4531 12.3438 15.4531 11.8438C15.4531 10.75 15.4531 9.66016 15.4531 8.56641C15.4531 8.01172 15.418 7.48047 15.3047 6.92969C15.1875 6.34766 14.9375 5.76563 14.6172 5.26562C14.168 4.57031 13.6719 4.08594 13.0156 3.60156C12.1172 2.9375 10.9453 2.62109 9.83596 2.61719C9.33205 2.61719 8.82424 2.61719 8.32033 2.61719C7.26955 2.61719 6.20705 2.86328 5.30861 3.42578C4.12502 4.16406 3.25783 5.28906 2.84377 6.62109C2.53127 7.625 2.6172 8.74219 2.6172 9.78125V13.2188C2.6172 13.4648 2.6133 13.707 2.6172 13.9531C2.65236 15.3672 3.20314 16.6836 4.16408 17.7188C4.55861 18.1484 5.0547 18.5312 5.57814 18.7891C5.92189 18.9609 6.27736 19.1172 6.64455 19.2266C7.03908 19.3438 7.46095 19.3867 7.8672 19.4297C8.37111 19.4805 8.89064 19.4453 9.39455 19.4453H9.87892C10.4805 19.4453 11.1094 19.1836 11.5352 18.7578C11.9414 18.3516 12.2461 17.6836 12.2227 17.1016C12.1953 16.4961 11.9961 15.8672 11.5352 15.4453C11.0781 15.0234 10.5156 14.7578 9.87892 14.7578Z" fill="white"/>
<path d="M31.8047 32.6953C31.4727 32.6953 31.1406 32.6953 30.8086 32.6953C30.4375 32.6953 30.0586 32.7148 29.6875 32.668C29.8945 32.6953 30.1016 32.7227 30.3125 32.75C30.0313 32.7109 29.7617 32.6367 29.5 32.5273C29.6875 32.6055 29.875 32.6836 30.0586 32.7617C29.8047 32.6523 29.5664 32.5156 29.3477 32.3477C29.5039 32.4688 29.6641 32.5938 29.8203 32.7148C29.5899 32.5352 29.3828 32.332 29.207 32.1016C29.3281 32.2578 29.4531 32.418 29.5742 32.5742C29.4063 32.3516 29.2695 32.1172 29.1602 31.8633C29.2383 32.0508 29.3164 32.2383 29.3945 32.4219C29.2891 32.1602 29.2149 31.8906 29.1719 31.6094C29.1992 31.8164 29.2266 32.0234 29.2539 32.2344C29.2149 31.9375 29.2266 31.6406 29.2266 31.3438C29.2266 30.875 29.2266 30.4102 29.2266 29.9414C29.2266 28.8672 29.2266 27.7891 29.2266 26.7148C29.2266 26.375 29.211 26.0312 29.2539 25.6953C29.2266 25.9023 29.1992 26.1094 29.1719 26.3203C29.211 26.0391 29.2852 25.7695 29.3945 25.5078C29.3164 25.6953 29.2383 25.8828 29.1602 26.0664C29.2695 25.8125 29.4063 25.5742 29.5742 25.3555C29.4531 25.5117 29.3281 25.6719 29.207 25.8281C29.3867 25.5977 29.5899 25.3906 29.8203 25.2148C29.6641 25.3359 29.5039 25.4609 29.3477 25.582C29.5703 25.4141 29.8047 25.2773 30.0586 25.168C29.8711 25.2461 29.6836 25.3242 29.5 25.4023C29.7617 25.2969 30.0313 25.2227 30.3125 25.1797C30.1055 25.207 29.8985 25.2344 29.6875 25.2617C30.1094 25.207 30.5391 25.2344 30.961 25.2344C31.3828 25.2344 31.8164 25.2109 32.2344 25.2617C32.0274 25.2344 31.8203 25.207 31.6094 25.1797C31.8906 25.2187 32.1602 25.293 32.4219 25.4023C32.2344 25.3242 32.0469 25.2461 31.8633 25.168C32.1172 25.2773 32.3555 25.4141 32.5742 25.582C32.418 25.4609 32.2578 25.3359 32.1016 25.2148C32.332 25.3945 32.5391 25.5977 32.7149 25.8281C32.5938 25.6719 32.4688 25.5117 32.3477 25.3555C32.5156 25.5781 32.6524 25.8125 32.7617 26.0664C32.6836 25.8789 32.6055 25.6914 32.5274 25.5078C32.6328 25.7695 32.7071 26.0391 32.75 26.3203C32.7227 26.1133 32.6953 25.9062 32.668 25.6953C32.707 25.9922 32.6953 26.2891 32.6953 26.5859V27.9883V31.2148C32.6953 31.5547 32.711 31.8984 32.668 32.2344C32.6953 32.0273 32.7227 31.8203 32.75 31.6094C32.711 31.8906 32.6367 32.1602 32.5274 32.4219C32.6055 32.2344 32.6836 32.0469 32.7617 31.8633C32.6524 32.1172 32.5156 32.3555 32.3477 32.5742C32.4688 32.418 32.5938 32.2578 32.7149 32.1016C32.5352 32.332 32.332 32.5391 32.1016 32.7148C32.2578 32.5938 32.418 32.4688 32.5742 32.3477C32.3516 32.5156 32.1172 32.6523 31.8633 32.7617C32.0508 32.6836 32.2383 32.6055 32.4219 32.5273C32.1602 32.6328 31.8906 32.707 31.6094 32.75C31.8164 32.7227 32.0235 32.6953 32.2344 32.668C32.0938 32.6836 31.9531 32.6953 31.8047 32.6953C31.1992 32.6992 30.5742 32.9531 30.1485 33.3828C29.7422 33.7891 29.4375 34.457 29.461 35.0391C29.4883 35.6445 29.6875 36.2734 30.1485 36.6953C30.6055 37.1133 31.1719 37.3867 31.8047 37.3828C33.2383 37.3711 34.5547 36.8203 35.6133 35.8711C36.0469 35.4805 36.4297 34.9844 36.6992 34.4688C36.8711 34.1367 37.0195 33.7852 37.1367 33.4297C37.2656 33.0312 37.3125 32.5977 37.3555 32.1875C37.3867 31.8867 37.3789 31.582 37.3789 31.2812C37.3789 30.7812 37.3789 30.2813 37.3789 29.7813C37.3789 28.6875 37.3789 27.5977 37.3789 26.5039C37.3789 25.9492 37.3438 25.418 37.2305 24.8672C37.1133 24.2852 36.8633 23.7031 36.543 23.2031C36.0938 22.5078 35.5977 22.0234 34.9414 21.5391C34.043 20.875 32.8711 20.5586 31.7617 20.5547C31.2578 20.5547 30.75 20.5547 30.2461 20.5547C29.1953 20.5547 28.1328 20.8008 27.2344 21.3633C26.0508 22.1016 25.1836 23.2266 24.7695 24.5586C24.457 25.5625 24.543 26.6797 24.543 27.7187V31.1562C24.543 31.4023 24.5391 31.6445 24.543 31.8906C24.5781 33.3047 25.1289 34.6211 26.0899 35.6563C26.4844 36.0859 26.9805 36.4688 27.5039 36.7266C27.8477 36.8984 28.2031 37.0547 28.5703 37.1641C28.9649 37.2813 29.3867 37.3242 29.793 37.3672C30.2969 37.418 30.8164 37.3828 31.3203 37.3828H31.8047C32.4063 37.3828 33.0352 37.1211 33.461 36.6953C33.8672 36.2891 34.1719 35.6211 34.1485 35.0391C34.1211 34.4336 33.9219 33.8047 33.461 33.3828C33.0039 32.9609 32.4414 32.6953 31.8047 32.6953Z" fill="white"/>
</svg>
