<svg width="25" height="25" viewBox="0 0 25 25" fill="none" xmlns="http://www.w3.org/2000/svg">
<path d="M12.5 0C10.073 0 8.10545 2.01632 8.10545 4.44338C8.10545 6.87044 10.0729 8.83792 12.5 8.83792C14.9271 8.83792 16.8945 6.87044 16.8945 4.44338C16.8945 2.01632 14.927 0 12.5 0Z" fill="#4B4D73"/>
<path d="M15.7744 15.1124C13.8654 15.1124 13.2124 17.3904 13.2059 17.4133C13.204 17.4203 13.1965 17.4234 13.1944 17.4303C13.1944 17.4302 13.1946 17.4302 13.1946 17.4301C13.1001 17.7358 12.8233 17.9476 12.5021 17.949C12.5014 17.949 12.5007 17.949 12.4992 17.949C12.1724 17.949 11.8848 17.7309 11.7947 17.4162C11.7682 17.3217 11.1166 15.1123 9.22548 15.1123C7.77567 15.1123 6.68274 16.3254 6.68274 17.9347C6.68274 19.8502 8.41009 21.7726 11.2726 24.1888C11.5169 24.3947 11.7682 24.6067 12.0258 24.8257C12.2989 25.0576 12.7002 25.0583 12.9734 24.8265C13.2309 24.6079 13.4817 24.3962 13.7252 24.1901C15.9029 22.3531 18.3172 19.9914 18.3172 17.9346C18.3172 16.3254 17.2243 15.1124 15.7744 15.1124Z" fill="#F44336"/>
<path d="M16.2354 8.91113C15.2246 9.77544 13.9356 10.3027 12.5 10.3027C11.0644 10.3027 9.77538 9.77539 8.76463 8.91113C4.66306 9.32124 1.51363 12.7685 1.51363 16.9434V17.9688C1.51363 20.3418 2.43648 22.5684 4.10646 24.2383C4.10646 24.2529 4.10646 24.2529 4.12111 24.2529C4.57521 24.707 5.2051 24.9707 5.84963 24.9854C6.92063 24.9586 7.78699 24.146 7.92967 23.1009C6.56433 21.6982 5.21794 19.9009 5.21794 17.9347C5.21794 15.4326 7.12957 13.6474 9.21874 13.6474C9.22015 13.6474 9.22123 13.6477 9.22269 13.6477C9.22367 13.6477 9.22455 13.6474 9.22557 13.6474C10.6041 13.6474 11.756 14.4057 12.5007 15.515C13.2524 14.3951 14.373 13.6474 15.7745 13.6474C15.7755 13.6474 15.7763 13.6477 15.7774 13.6477C15.7788 13.6477 15.7798 13.6474 15.7813 13.6474C18.0007 13.6474 19.7821 15.5511 19.7821 17.9347C19.7131 18.1202 20.0793 19.9264 17.0684 23.0813C17.2029 24.1357 18.0727 24.9584 19.1505 24.9854C19.795 24.9707 20.4249 24.707 20.879 24.2529C20.8936 24.2529 20.8936 24.2529 20.8936 24.2383C22.5635 22.5684 23.4864 20.3418 23.4864 17.9688V16.9434C23.4864 12.7685 20.3369 9.32124 16.2354 8.91113Z" fill="#4B4D73"/>
</svg>
