<svg width="25" height="25" viewBox="0 0 25 25" fill="none" xmlns="http://www.w3.org/2000/svg">
<g clip-path="url(#clip0_2972_17316)">
<path d="M24.8268 6.89954C24.6866 6.73504 24.482 6.6406 24.2675 6.6406H5.9157L4.46644 1.32129C4.37918 1.00229 4.09022 0.78125 3.75975 0.78125H0.732419C0.327587 0.78125 0 1.10884 0 1.51367C0 1.9185 0.327587 2.24609 0.732419 2.24609H3.20043C8.75783 22.6069 6.84109 15.5844 7.25573 17.1036C6.48708 17.4489 5.95701 18.2025 5.95701 19.0917C5.95701 20.1046 6.64929 20.9509 7.58312 21.2042C7.48112 21.4573 7.42185 21.7321 7.42185 22.0214C7.42185 23.233 8.40749 24.2187 9.6191 24.2187C10.8307 24.2187 11.8164 23.233 11.8164 22.0214C11.8164 21.7634 11.7635 21.5192 11.6814 21.289H17.8106C17.7285 21.5192 17.6757 21.7634 17.6757 22.0214C17.6757 23.233 18.6614 24.2187 19.873 24.2187C21.0846 24.2187 22.0702 23.233 22.0702 22.0214C22.0702 20.8098 21.0846 19.8241 19.873 19.8241H8.15427C7.75085 19.8241 7.42185 19.4958 7.42185 19.0917C7.42185 18.4095 8.30109 18.2657 8.15427 18.345C8.30075 18.345 8.79596 18.2838 22.8742 16.8909C23.2046 16.858 23.4707 16.6091 23.5251 16.2822L24.9899 7.49319C25.0256 7.28074 24.9656 7.06404 24.8268 6.89954ZM10.3515 22.0214C10.3515 22.4255 10.0225 22.7538 9.6191 22.7538C9.21569 22.7538 8.88668 22.4255 8.88668 22.0214C8.88668 21.6173 9.21569 21.289 9.6191 21.289C10.0225 21.289 10.3515 21.6173 10.3515 22.0214ZM19.873 22.7538C19.4696 22.7538 19.1406 22.4255 19.1406 22.0214C19.1406 21.6173 19.4696 21.289 19.873 21.289C20.2764 21.289 20.6054 21.6173 20.6054 22.0214C20.6054 22.4255 20.2764 22.7538 19.873 22.7538ZM11.8164 13.2324C11.8164 13.6372 11.4888 13.9648 11.0839 13.9648C10.6791 13.9648 10.3515 13.6372 10.3515 13.2324V10.3027C10.3515 9.89786 10.6791 9.57028 11.0839 9.57028C11.4888 9.57028 11.8164 9.89786 11.8164 10.3027V13.2324ZM16.2109 13.2324C16.2109 13.6372 15.8833 13.9648 15.4785 13.9648C15.0736 13.9648 14.746 13.6372 14.746 13.2324V10.3027C14.746 9.89786 15.0736 9.57028 15.4785 9.57028C15.8833 9.57028 16.2109 9.89786 16.2109 10.3027V13.2324ZM20.6054 13.2324C20.6054 13.6372 20.2778 13.9648 19.873 13.9648C19.4681 13.9648 19.1406 13.6372 19.1406 13.2324V10.3027C19.1406 9.89786 19.4681 9.57028 19.873 9.57028C20.2778 9.57028 20.6054 9.89786 20.6054 10.3027V13.2324Z" fill="#4B4D73"/>
<path d="M22.0703 2.97853C22.0703 2.57369 21.7427 2.24611 21.3379 2.24611H20.1763L20.3909 2.03151C20.677 1.74542 20.677 1.2819 20.3909 0.995813C20.1048 0.709729 19.6413 0.709729 19.3552 0.995813L18.4082 1.94283L17.4612 0.995813C17.1751 0.709729 16.7116 0.709729 16.4255 0.995813C16.1394 1.2819 16.1394 1.74542 16.4255 2.03151L16.6401 2.24611H15.4785C15.0737 2.24611 14.7461 2.57369 14.7461 2.97853V5.17579H22.0703V2.97853Z" fill="#F44336"/>
<path d="M13.2812 3.71094H8.1543C7.74946 3.71094 7.42188 4.03853 7.42188 4.44336V5.17578H13.2812V3.71094Z" fill="#F44336"/>
</g>
<defs>
<clipPath id="clip0_2972_17316">
<rect width="25" height="25" fill="white"/>
</clipPath>
</defs>
</svg>
